{
  "accessors": [
    {
      "bufferView": 2,
      "componentType": 5126,
      "count": 2641,
      "max": [
        117.6611557006836,
        -78.42826080322266,
        21.010831832885742
      ],
      "min": [
        56.07868576049805,
        -127.68366241455078,
        -11.1908540725708
      ],
      "type": "VEC3"
    },
    {
      "bufferView": 2,
      "byteOffset": 31692,
      "componentType": 5126,
      "count": 2641,
      "max": [
        0.9997819066047668,
        0.9980935454368591,
        0.9986087679862976
      ],
      "min": [
        -0.999782145023346,
        -0.9983723759651184,
        -0.9968753457069397
      ],
      "type": "VEC3"
    },
    {
      "bufferView": 1,
      "componentType": 5126,
      "count": 2641,
      "max": [
        0.9977779984474182,
        -0.0021669999696314335
      ],
      "min": [
        0.0006649999995715916,
        -0.9982370138168335
      ],
      "type": "VEC2"
    },
    {
      "bufferView": 0,
      "componentType": 5125,
      "count": 5595,
      "type": "SCALAR"
    }
  ],
  "asset": {
    "extras": {
      "author": "Long Nguyễn (https://sketchfab.com/LongNguyen89)",
      "license": "CC-BY-4.0 (http://creativecommons.org/licenses/by/4.0/)",
      "source": "https://sketchfab.com/3d-models/mp5-fa9b8914fda34acb9a54fa64e99d5608",
      "title": "Mp5"
    },
    "generator": "Sketchfab-12.78.0",
    "version": "2.0"
  },
  "bufferViews": [
    {
      "buffer": 0,
      "byteLength": 22380,
      "name": "floatBufferViews",
      "target": 34963
    },
    {
      "buffer": 0,
      "byteLength": 21128,
      "byteOffset": 22380,
      "byteStride": 8,
      "name": "floatBufferViews",
      "target": 34962
    },
    {
      "buffer": 0,
      "byteLength": 63384,
      "byteOffset": 43508,
      "byteStride": 12,
      "name": "floatBufferViews",
      "target": 34962
    }
  ],
  "buffers": [
    {
      "byteLength": 106892,
      "uri": "scene.bin"
    }
  ],
  "images": [
    {
      "uri": "textures/MESH-0_baseColor.png"
    },
    {
      "uri": "textures/MESH-0_metallicRoughness.png"
    }
  ],
  "materials": [
    {
      "doubleSided": true,
      "emissiveFactor": [
        1.0,
        1.0,
        1.0
      ],
      "emissiveTexture": {
        "index": 0
      },
      "name": "MESH-0",
      "pbrMetallicRoughness": {
        "baseColorTexture": {
          "index": 0
        },
        "metallicRoughnessTexture": {
          "index": 1
        }
      }
    }
  ],
  "meshes": [
    {
      "name": "Object_0",
      "primitives": [
        {
          "attributes": {
            "NORMAL": 1,
            "POSITION": 0,
            "TEXCOORD_0": 2
          },
          "indices": 3,
          "material": 0,
          "mode": 4
        }
      ]
    }
  ],
  "nodes": [
    {
      "children": [
        1
      ],
      "matrix": [
        1.0,
        0.0,
        0.0,
        0.0,
        0.0,
        2.220446049250313e-16,
        -1.0,
        0.0,
        0.0,
        1.0,
        2.220446049250313e-16,
        0.0,
        0.0,
        0.0,
        0.0,
        1.0
      ],
      "name": "Sketchfab_model"
    },
    {
      "children": [
        2
      ],
      "name": "bd2f67c5be0b405c863a64d8d889a21c.obj.cleaner.materialmerger.gles"
    },
    {
      "mesh": 0,
      "name": "Object_2"
    }
  ],
  "samplers": [
    {
      "magFilter": 9729,
      "minFilter": 9987,
      "wrapS": 10497,
      "wrapT": 10497
    }
  ],
  "scene": 0,
  "scenes": [
    {
      "name": "Sketchfab_Scene",
      "nodes": [
        0
      ]
    }
  ],
  "textures": [
    {
      "sampler": 0,
      "source": 0
    },
    {
      "sampler": 0,
      "source": 1
    }
  ]
}
